<?xml version="1.0" encoding="utf-8"?>
<!-- Generator: Adobe Illustrator 19.1.0, SVG Export Plug-In . SVG Version: 6.00 Build 0)  -->
<!DOCTYPE svg PUBLIC "-//W3C//DTD SVG 1.1//EN" "http://www.w3.org/Graphics/SVG/1.1/DTD/svg11.dtd">
<svg version="1.1" id="Layer_1" xmlns="http://www.w3.org/2000/svg" xmlns:xlink="http://www.w3.org/1999/xlink" x="0px" y="0px"
	 viewBox="0 0 364.4 270.68" enable-background="new 0 0 364.4 270.68" xml:space="preserve">
<g>
	<text transform="matrix(1 0 0 1 97.5641 7.7047)" fill="#FF005F" font-family="'Courier'" font-size="9.7588px">c</text>
	<text transform="matrix(1 0 0 1 103.4206 7.7047)" fill="#FF005F" font-family="'Courier'" font-size="9.7588px">l</text>
	<text transform="matrix(1 0 0 1 109.2765 7.7047)" fill="#FF005F" font-family="'Courier'" font-size="9.7588px">a</text>
	<text transform="matrix(1 0 0 1 115.133 7.7047)" fill="#FF005F" font-family="'Courier'" font-size="9.7588px">s</text>
	<text transform="matrix(1 0 0 1 120.9889 7.7047)" fill="#FF005F" font-family="'Courier'" font-size="9.7588px">s</text>
	<text transform="matrix(1 0 0 1 126.8405 7.7047)" fill="#ABABAB" font-family="'Courier'" font-size="9.7588px"> </text>
	<text transform="matrix(1 0 0 1 132.6935 7.7047)" fill="#3F90AB" font-family="'Courier'" font-size="9.7588px">B</text>
	<text transform="matrix(1 0 0 1 138.5495 7.7047)" fill="#3F90AB" font-family="'Courier'" font-size="9.7588px">o</text>
	<text transform="matrix(1 0 0 1 144.4059 7.7047)" fill="#3F90AB" font-family="'Courier'" font-size="9.7588px">t</text>
	<text transform="matrix(1 0 0 1 150.2619 7.7047)" fill="#3F90AB" font-family="'Courier'" font-size="9.7588px">t</text>
	<text transform="matrix(1 0 0 1 156.1183 7.7047)" fill="#3F90AB" font-family="'Courier'" font-size="9.7588px">l</text>
	<text transform="matrix(1 0 0 1 161.9743 7.7047)" fill="#3F90AB" font-family="'Courier'" font-size="9.7588px">e</text>
	<text transform="matrix(1 0 0 1 167.8224 7.7047)" fill="#ABABAB" font-family="'Courier'" font-size="9.7588px"> </text>
	<text transform="matrix(1 0 0 1 97.5641 18.9649)" fill="#ABABAB" font-family="'Courier'" font-size="9.7588px"> </text>
	<text transform="matrix(1 0 0 1 103.4206 18.9649)" fill="#ABABAB" font-family="'Courier'" font-size="9.7588px"> </text>
	<text transform="matrix(1 0 0 1 109.2702 18.9649)" fill="#FF005F" font-family="'Courier'" font-size="9.7588px">d</text>
	<text transform="matrix(1 0 0 1 115.1261 18.9649)" fill="#FF005F" font-family="'Courier'" font-size="9.7588px">e</text>
	<text transform="matrix(1 0 0 1 120.9826 18.9649)" fill="#FF005F" font-family="'Courier'" font-size="9.7588px">f</text>
	<text transform="matrix(1 0 0 1 126.8288 18.9649)" fill="#ABABAB" font-family="'Courier'" font-size="9.7588px"> </text>
	<text transform="matrix(1 0 0 1 132.6818 18.9649)" fill="#AFD700" font-family="'Courier'" font-size="9.7588px">c</text>
	<text transform="matrix(1 0 0 1 138.5378 18.9649)" fill="#AFD700" font-family="'Courier'" font-size="9.7588px">o</text>
	<text transform="matrix(1 0 0 1 144.3942 18.9649)" fill="#AFD700" font-family="'Courier'" font-size="9.7588px">l</text>
	<text transform="matrix(1 0 0 1 150.2502 18.9649)" fill="#AFD700" font-family="'Courier'" font-size="9.7588px">o</text>
	<text transform="matrix(1 0 0 1 156.1066 18.9649)" fill="#AFD700" font-family="'Courier'" font-size="9.7588px">r</text>
	<text transform="matrix(1 0 0 1 161.9577 18.9649)" fill="#ABABAB" font-family="'Courier'" font-size="9.7588px"> </text>
	<text transform="matrix(1 0 0 1 97.5641 30.2251)" fill="#ABABAB" font-family="'Courier'" font-size="9.7588px"> </text>
	<text transform="matrix(1 0 0 1 103.4206 30.2251)" fill="#ABABAB" font-family="'Courier'" font-size="9.7588px"> </text>
	<text transform="matrix(1 0 0 1 109.2765 30.2251)" fill="#ABABAB" font-family="'Courier'" font-size="9.7588px"> </text>
	<text transform="matrix(1 0 0 1 115.133 30.2251)" fill="#ABABAB" font-family="'Courier'" font-size="9.7588px"> </text>
	<text transform="matrix(1 0 0 1 120.9889 30.2251)" fill="#ABABAB" font-family="'Courier'" font-size="9.7588px">@</text>
	<text transform="matrix(1 0 0 1 126.8454 30.2251)" fill="#ABABAB" font-family="'Courier'" font-size="9.7588px">c</text>
	<text transform="matrix(1 0 0 1 132.7013 30.2251)" fill="#ABABAB" font-family="'Courier'" font-size="9.7588px">o</text>
	<text transform="matrix(1 0 0 1 138.5578 30.2251)" fill="#ABABAB" font-family="'Courier'" font-size="9.7588px">l</text>
	<text transform="matrix(1 0 0 1 144.4137 30.2251)" fill="#ABABAB" font-family="'Courier'" font-size="9.7588px">o</text>
	<text transform="matrix(1 0 0 1 150.2702 30.2251)" fill="#ABABAB" font-family="'Courier'" font-size="9.7588px">r</text>
	<text transform="matrix(1 0 0 1 156.1169 30.2251)" fill="#ABABAB" font-family="'Courier'" font-size="9.7588px"> </text>
	<text transform="matrix(1 0 0 1 97.5641 41.4849)" fill="#ABABAB" font-family="'Courier'" font-size="9.7588px"> </text>
	<text transform="matrix(1 0 0 1 103.4206 41.4849)" fill="#ABABAB" font-family="'Courier'" font-size="9.7588px"> </text>
	<text transform="matrix(1 0 0 1 109.2702 41.4849)" fill="#FF005F" font-family="'Courier'" font-size="9.7588px">e</text>
	<text transform="matrix(1 0 0 1 115.1261 41.4849)" fill="#FF005F" font-family="'Courier'" font-size="9.7588px">n</text>
	<text transform="matrix(1 0 0 1 120.9826 41.4849)" fill="#FF005F" font-family="'Courier'" font-size="9.7588px">d</text>
	<text transform="matrix(1 0 0 1 126.8288 41.4849)" fill="#ABABAB" font-family="'Courier'" font-size="9.7588px"> </text>
	<text transform="matrix(1 0 0 1 97.5641 52.7452)" fill="#ABABAB" font-family="'Courier'" font-size="9.7588px"> </text>
	<text transform="matrix(1 0 0 1 97.5641 64.0049)" fill="#ABABAB" font-family="'Courier'" font-size="9.7588px"> </text>
	<text transform="matrix(1 0 0 1 103.4206 64.0049)" fill="#ABABAB" font-family="'Courier'" font-size="9.7588px"> </text>
	<text transform="matrix(1 0 0 1 109.2702 64.0049)" fill="#FF005F" font-family="'Courier'" font-size="9.7588px">d</text>
	<text transform="matrix(1 0 0 1 115.1261 64.0049)" fill="#FF005F" font-family="'Courier'" font-size="9.7588px">e</text>
	<text transform="matrix(1 0 0 1 120.9826 64.0049)" fill="#FF005F" font-family="'Courier'" font-size="9.7588px">f</text>
	<text transform="matrix(1 0 0 1 126.8288 64.0049)" fill="#ABABAB" font-family="'Courier'" font-size="9.7588px"> </text>
	<text transform="matrix(1 0 0 1 132.6818 64.0049)" fill="#AFD700" font-family="'Courier'" font-size="9.7588px">c</text>
	<text transform="matrix(1 0 0 1 138.5378 64.0049)" fill="#AFD700" font-family="'Courier'" font-size="9.7588px">o</text>
	<text transform="matrix(1 0 0 1 144.3942 64.0049)" fill="#AFD700" font-family="'Courier'" font-size="9.7588px">l</text>
	<text transform="matrix(1 0 0 1 150.2502 64.0049)" fill="#AFD700" font-family="'Courier'" font-size="9.7588px">o</text>
	<text transform="matrix(1 0 0 1 156.1066 64.0049)" fill="#AFD700" font-family="'Courier'" font-size="9.7588px">r</text>
	<text transform="matrix(1 0 0 1 161.9626 64.0049)" fill="#AFD700" font-family="'Courier'" font-size="9.7588px">=</text>
	<text transform="matrix(1 0 0 1 167.8107 64.0049)" fill="#ABABAB" font-family="'Courier'" font-size="9.7588px">(</text>
	<text transform="matrix(1 0 0 1 173.6671 64.0049)" fill="#ABABAB" font-family="'Courier'" font-size="9.7588px">o</text>
	<text transform="matrix(1 0 0 1 179.5231 64.0049)" fill="#ABABAB" font-family="'Courier'" font-size="9.7588px">t</text>
	<text transform="matrix(1 0 0 1 185.3795 64.0049)" fill="#ABABAB" font-family="'Courier'" font-size="9.7588px">h</text>
	<text transform="matrix(1 0 0 1 191.2355 64.0049)" fill="#ABABAB" font-family="'Courier'" font-size="9.7588px">e</text>
	<text transform="matrix(1 0 0 1 197.0919 64.0049)" fill="#ABABAB" font-family="'Courier'" font-size="9.7588px">r</text>
	<text transform="matrix(1 0 0 1 202.9479 64.0049)" fill="#ABABAB" font-family="'Courier'" font-size="9.7588px">)</text>
	<text transform="matrix(1 0 0 1 208.7931 64.0049)" fill="#ABABAB" font-family="'Courier'" font-size="9.7588px"> </text>
	<text transform="matrix(1 0 0 1 97.5641 75.2656)" fill="#ABABAB" font-family="'Courier'" font-size="9.7588px"> </text>
	<text transform="matrix(1 0 0 1 103.4206 75.2656)" fill="#ABABAB" font-family="'Courier'" font-size="9.7588px"> </text>
	<text transform="matrix(1 0 0 1 109.2765 75.2656)" fill="#ABABAB" font-family="'Courier'" font-size="9.7588px"> </text>
	<text transform="matrix(1 0 0 1 115.133 75.2656)" fill="#ABABAB" font-family="'Courier'" font-size="9.7588px"> </text>
	<text transform="matrix(1 0 0 1 120.9889 75.2656)" fill="#ABABAB" font-family="'Courier'" font-size="9.7588px">@</text>
	<text transform="matrix(1 0 0 1 126.8454 75.2656)" fill="#ABABAB" font-family="'Courier'" font-size="9.7588px">c</text>
	<text transform="matrix(1 0 0 1 132.7013 75.2656)" fill="#ABABAB" font-family="'Courier'" font-size="9.7588px">o</text>
	<text transform="matrix(1 0 0 1 138.5578 75.2656)" fill="#ABABAB" font-family="'Courier'" font-size="9.7588px">l</text>
	<text transform="matrix(1 0 0 1 144.4137 75.2656)" fill="#ABABAB" font-family="'Courier'" font-size="9.7588px">o</text>
	<text transform="matrix(1 0 0 1 150.2702 75.2656)" fill="#ABABAB" font-family="'Courier'" font-size="9.7588px">r</text>
	<text transform="matrix(1 0 0 1 156.1261 75.2656)" fill="#ABABAB" font-family="'Courier'" font-size="9.7588px"> </text>
	<text transform="matrix(1 0 0 1 161.9826 75.2656)" fill="#ABABAB" font-family="'Courier'" font-size="9.7588px">=</text>
	<text transform="matrix(1 0 0 1 167.8385 75.2656)" fill="#ABABAB" font-family="'Courier'" font-size="9.7588px"> </text>
	<text transform="matrix(1 0 0 1 173.695 75.2656)" fill="#ABABAB" font-family="'Courier'" font-size="9.7588px">o</text>
	<text transform="matrix(1 0 0 1 179.5509 75.2656)" fill="#ABABAB" font-family="'Courier'" font-size="9.7588px">t</text>
	<text transform="matrix(1 0 0 1 185.4074 75.2656)" fill="#ABABAB" font-family="'Courier'" font-size="9.7588px">h</text>
	<text transform="matrix(1 0 0 1 191.2633 75.2656)" fill="#ABABAB" font-family="'Courier'" font-size="9.7588px">e</text>
	<text transform="matrix(1 0 0 1 197.1198 75.2656)" fill="#ABABAB" font-family="'Courier'" font-size="9.7588px">r</text>
	<text transform="matrix(1 0 0 1 202.9753 75.2656)" fill="#ABABAB" font-family="'Courier'" font-size="9.7588px"> </text>
	<text transform="matrix(1 0 0 1 97.5641 86.5255)" fill="#ABABAB" font-family="'Courier'" font-size="9.7588px"> </text>
	<text transform="matrix(1 0 0 1 103.4206 86.5255)" fill="#ABABAB" font-family="'Courier'" font-size="9.7588px"> </text>
	<text transform="matrix(1 0 0 1 109.2702 86.5255)" fill="#FF005F" font-family="'Courier'" font-size="9.7588px">e</text>
	<text transform="matrix(1 0 0 1 115.1261 86.5255)" fill="#FF005F" font-family="'Courier'" font-size="9.7588px">n</text>
	<text transform="matrix(1 0 0 1 120.9826 86.5255)" fill="#FF005F" font-family="'Courier'" font-size="9.7588px">d</text>
	<text transform="matrix(1 0 0 1 126.8288 86.5255)" fill="#ABABAB" font-family="'Courier'" font-size="9.7588px"> </text>
	<text transform="matrix(1 0 0 1 97.5641 97.7856)" fill="#FF005F" font-family="'Courier'" font-size="9.7588px">e</text>
	<text transform="matrix(1 0 0 1 103.4206 97.7856)" fill="#FF005F" font-family="'Courier'" font-size="9.7588px">n</text>
	<text transform="matrix(1 0 0 1 109.2765 97.7856)" fill="#FF005F" font-family="'Courier'" font-size="9.7588px">d</text>
	<text transform="matrix(1 0 0 1 115.1227 97.7856)" fill="#ABABAB" font-family="'Courier'" font-size="9.7588px"> </text>
	<text transform="matrix(1 0 0 1 97.5641 109.046)" fill="#ABABAB" font-family="'Courier'" font-size="9.7588px"> </text>
	<text transform="matrix(1 0 0 1 97.5641 120.3061)" fill="#FF005F" font-family="'Courier'" font-size="9.7588px">c</text>
	<text transform="matrix(1 0 0 1 103.4206 120.3061)" fill="#FF005F" font-family="'Courier'" font-size="9.7588px">l</text>
	<text transform="matrix(1 0 0 1 109.2765 120.3061)" fill="#FF005F" font-family="'Courier'" font-size="9.7588px">a</text>
	<text transform="matrix(1 0 0 1 115.133 120.3061)" fill="#FF005F" font-family="'Courier'" font-size="9.7588px">s</text>
	<text transform="matrix(1 0 0 1 120.9889 120.3061)" fill="#FF005F" font-family="'Courier'" font-size="9.7588px">s</text>
	<text transform="matrix(1 0 0 1 126.8405 120.3061)" fill="#ABABAB" font-family="'Courier'" font-size="9.7588px"> </text>
	<text transform="matrix(1 0 0 1 132.6935 120.3061)" fill="#3F90AB" font-family="'Courier'" font-size="9.7588px">B</text>
	<text transform="matrix(1 0 0 1 138.5495 120.3061)" fill="#3F90AB" font-family="'Courier'" font-size="9.7588px">o</text>
	<text transform="matrix(1 0 0 1 144.4059 120.3061)" fill="#3F90AB" font-family="'Courier'" font-size="9.7588px">t</text>
	<text transform="matrix(1 0 0 1 150.2619 120.3061)" fill="#3F90AB" font-family="'Courier'" font-size="9.7588px">t</text>
	<text transform="matrix(1 0 0 1 156.1183 120.3061)" fill="#3F90AB" font-family="'Courier'" font-size="9.7588px">l</text>
	<text transform="matrix(1 0 0 1 161.9743 120.3061)" fill="#3F90AB" font-family="'Courier'" font-size="9.7588px">e</text>
	<text transform="matrix(1 0 0 1 167.8224 120.3061)" fill="#ABABAB" font-family="'Courier'" font-size="9.7588px"> </text>
	<text transform="matrix(1 0 0 1 97.5641 131.5659)" fill="#ABABAB" font-family="'Courier'" font-size="9.7588px"> </text>
	<text transform="matrix(1 0 0 1 103.4206 131.5659)" fill="#ABABAB" font-family="'Courier'" font-size="9.7588px"> </text>
	<text transform="matrix(1 0 0 1 109.2702 131.5659)" fill="#FF005F" font-family="'Courier'" font-size="9.7588px">a</text>
	<text transform="matrix(1 0 0 1 115.1261 131.5659)" fill="#FF005F" font-family="'Courier'" font-size="9.7588px">t</text>
	<text transform="matrix(1 0 0 1 120.9826 131.5659)" fill="#FF005F" font-family="'Courier'" font-size="9.7588px">t</text>
	<text transform="matrix(1 0 0 1 126.8385 131.5659)" fill="#FF005F" font-family="'Courier'" font-size="9.7588px">r</text>
	<text transform="matrix(1 0 0 1 173.6872 131.5659)" fill="#ABABAB" font-family="'Courier'" font-size="9.7588px"> </text>
	<text transform="matrix(1 0 0 1 179.5402 131.5659)" fill="#755AAB" font-family="'Courier'" font-size="9.7588px">:</text>
	<text transform="matrix(1 0 0 1 185.3961 131.5659)" fill="#755AAB" font-family="'Courier'" font-size="9.7588px">c</text>
	<text transform="matrix(1 0 0 1 191.2526 131.5659)" fill="#755AAB" font-family="'Courier'" font-size="9.7588px">o</text>
	<text transform="matrix(1 0 0 1 197.1086 131.5659)" fill="#755AAB" font-family="'Courier'" font-size="9.7588px">l</text>
	<text transform="matrix(1 0 0 1 202.965 131.5659)" fill="#755AAB" font-family="'Courier'" font-size="9.7588px">o</text>
	<text transform="matrix(1 0 0 1 208.821 131.5659)" fill="#755AAB" font-family="'Courier'" font-size="9.7588px">r</text>
	<text transform="matrix(1 0 0 1 214.6691 131.5659)" fill="#ABABAB" font-family="'Courier'" font-size="9.7588px"> </text>
	<text transform="matrix(1 0 0 1 97.5641 142.8263)" fill="#ABABAB" font-family="'Courier'" font-size="9.7588px"> </text>
	<text transform="matrix(1 0 0 1 103.4206 142.8263)" fill="#ABABAB" font-family="'Courier'" font-size="9.7588px"> </text>
	<text transform="matrix(1 0 0 1 109.2702 142.8263)" fill="#FF005F" font-family="'Courier'" font-size="9.7588px">a</text>
	<text transform="matrix(1 0 0 1 115.1261 142.8263)" fill="#FF005F" font-family="'Courier'" font-size="9.7588px">t</text>
	<text transform="matrix(1 0 0 1 120.9826 142.8263)" fill="#FF005F" font-family="'Courier'" font-size="9.7588px">t</text>
	<text transform="matrix(1 0 0 1 126.8385 142.8263)" fill="#FF005F" font-family="'Courier'" font-size="9.7588px">r</text>
	<text transform="matrix(1 0 0 1 173.6872 142.8263)" fill="#ABABAB" font-family="'Courier'" font-size="9.7588px"> </text>
	<text transform="matrix(1 0 0 1 179.5402 142.8263)" fill="#755AAB" font-family="'Courier'" font-size="9.7588px">:</text>
	<text transform="matrix(1 0 0 1 185.3961 142.8263)" fill="#755AAB" font-family="'Courier'" font-size="9.7588px">c</text>
	<text transform="matrix(1 0 0 1 191.2526 142.8263)" fill="#755AAB" font-family="'Courier'" font-size="9.7588px">o</text>
	<text transform="matrix(1 0 0 1 197.1086 142.8263)" fill="#755AAB" font-family="'Courier'" font-size="9.7588px">l</text>
	<text transform="matrix(1 0 0 1 202.965 142.8263)" fill="#755AAB" font-family="'Courier'" font-size="9.7588px">o</text>
	<text transform="matrix(1 0 0 1 208.821 142.8263)" fill="#755AAB" font-family="'Courier'" font-size="9.7588px">r</text>
	<text transform="matrix(1 0 0 1 214.6691 142.8263)" fill="#ABABAB" font-family="'Courier'" font-size="9.7588px"> </text>
	<text transform="matrix(1 0 0 1 97.5641 154.0864)" fill="#FF005F" font-family="'Courier'" font-size="9.7588px">e</text>
	<text transform="matrix(1 0 0 1 103.4206 154.0864)" fill="#FF005F" font-family="'Courier'" font-size="9.7588px">n</text>
	<text transform="matrix(1 0 0 1 109.2765 154.0864)" fill="#FF005F" font-family="'Courier'" font-size="9.7588px">d</text>
	<text transform="matrix(1 0 0 1 115.1227 154.0864)" fill="#ABABAB" font-family="'Courier'" font-size="9.7588px"> </text>
	<text transform="matrix(1 0 0 1 97.5641 165.3463)" fill="#ABABAB" font-family="'Courier'" font-size="9.7588px"> </text>
	<text transform="matrix(1 0 0 1 97.5641 176.6059)" fill="#FF005F" font-family="'Courier'" font-size="9.7588px">c</text>
	<text transform="matrix(1 0 0 1 103.4206 176.6059)" fill="#FF005F" font-family="'Courier'" font-size="9.7588px">l</text>
	<text transform="matrix(1 0 0 1 109.2765 176.6059)" fill="#FF005F" font-family="'Courier'" font-size="9.7588px">a</text>
	<text transform="matrix(1 0 0 1 115.133 176.6059)" fill="#FF005F" font-family="'Courier'" font-size="9.7588px">s</text>
	<text transform="matrix(1 0 0 1 120.9889 176.6059)" fill="#FF005F" font-family="'Courier'" font-size="9.7588px">s</text>
	<text transform="matrix(1 0 0 1 126.8405 176.6059)" fill="#ABABAB" font-family="'Courier'" font-size="9.7588px"> </text>
	<text transform="matrix(1 0 0 1 132.6935 176.6059)" fill="#3F90AB" font-family="'Courier'" font-size="9.7588px">B</text>
	<text transform="matrix(1 0 0 1 138.5495 176.6059)" fill="#3F90AB" font-family="'Courier'" font-size="9.7588px">o</text>
	<text transform="matrix(1 0 0 1 144.4059 176.6059)" fill="#3F90AB" font-family="'Courier'" font-size="9.7588px">t</text>
	<text transform="matrix(1 0 0 1 150.2619 176.6059)" fill="#3F90AB" font-family="'Courier'" font-size="9.7588px">t</text>
	<text transform="matrix(1 0 0 1 156.1183 176.6059)" fill="#3F90AB" font-family="'Courier'" font-size="9.7588px">l</text>
	<text transform="matrix(1 0 0 1 161.9743 176.6059)" fill="#3F90AB" font-family="'Courier'" font-size="9.7588px">e</text>
	<text transform="matrix(1 0 0 1 167.8224 176.6059)" fill="#ABABAB" font-family="'Courier'" font-size="9.7588px"> </text>
	<text transform="matrix(1 0 0 1 97.5641 187.8668)" fill="#ABABAB" font-family="'Courier'" font-size="9.7588px"> </text>
	<text transform="matrix(1 0 0 1 103.4206 187.8668)" fill="#ABABAB" font-family="'Courier'" font-size="9.7588px"> </text>
	<text transform="matrix(1 0 0 1 109.2702 187.8668)" fill="#FF005F" font-family="'Courier'" font-size="9.7588px">a</text>
	<text transform="matrix(1 0 0 1 115.1261 187.8668)" fill="#FF005F" font-family="'Courier'" font-size="9.7588px">t</text>
	<text transform="matrix(1 0 0 1 120.9826 187.8668)" fill="#FF005F" font-family="'Courier'" font-size="9.7588px">t</text>
	<text transform="matrix(1 0 0 1 126.8385 187.8668)" fill="#FF005F" font-family="'Courier'" font-size="9.7588px">r</text>
	<text transform="matrix(1 0 0 1 132.695 187.8668)" fill="#FF005F" font-family="'Courier'" font-size="9.7588px">_</text>
	<text transform="matrix(1 0 0 1 138.5509 187.8668)" fill="#FF005F" font-family="'Courier'" font-size="9.7588px">a</text>
	<text transform="matrix(1 0 0 1 144.4074 187.8668)" fill="#FF005F" font-family="'Courier'" font-size="9.7588px">c</text>
	<text transform="matrix(1 0 0 1 150.2633 187.8668)" fill="#FF005F" font-family="'Courier'" font-size="9.7588px">c</text>
	<text transform="matrix(1 0 0 1 156.1198 187.8668)" fill="#FF005F" font-family="'Courier'" font-size="9.7588px">e</text>
	<text transform="matrix(1 0 0 1 161.9757 187.8668)" fill="#FF005F" font-family="'Courier'" font-size="9.7588px">s</text>
	<text transform="matrix(1 0 0 1 167.8322 187.8668)" fill="#FF005F" font-family="'Courier'" font-size="9.7588px">s</text>
	<text transform="matrix(1 0 0 1 173.6881 187.8668)" fill="#FF005F" font-family="'Courier'" font-size="9.7588px">o</text>
	<text transform="matrix(1 0 0 1 179.5446 187.8668)" fill="#FF005F" font-family="'Courier'" font-size="9.7588px">r</text>
	<text transform="matrix(1 0 0 1 185.3932 187.8668)" fill="#ABABAB" font-family="'Courier'" font-size="9.7588px"> </text>
	<text transform="matrix(1 0 0 1 191.2458 187.8668)" fill="#755AAB" font-family="'Courier'" font-size="9.7588px">:</text>
	<text transform="matrix(1 0 0 1 197.1022 187.8668)" fill="#755AAB" font-family="'Courier'" font-size="9.7588px">c</text>
	<text transform="matrix(1 0 0 1 202.9582 187.8668)" fill="#755AAB" font-family="'Courier'" font-size="9.7588px">o</text>
	<text transform="matrix(1 0 0 1 208.8146 187.8668)" fill="#755AAB" font-family="'Courier'" font-size="9.7588px">l</text>
	<text transform="matrix(1 0 0 1 214.6706 187.8668)" fill="#755AAB" font-family="'Courier'" font-size="9.7588px">o</text>
	<text transform="matrix(1 0 0 1 220.527 187.8668)" fill="#755AAB" font-family="'Courier'" font-size="9.7588px">r</text>
	<text transform="matrix(1 0 0 1 226.3752 187.8668)" fill="#ABABAB" font-family="'Courier'" font-size="9.7588px"> </text>
	<text transform="matrix(1 0 0 1 97.5641 199.1266)" fill="#FF005F" font-family="'Courier'" font-size="9.7588px">e</text>
	<text transform="matrix(1 0 0 1 103.4206 199.1266)" fill="#FF005F" font-family="'Courier'" font-size="9.7588px">n</text>
	<text transform="matrix(1 0 0 1 109.2765 199.1266)" fill="#FF005F" font-family="'Courier'" font-size="9.7588px">d</text>
	<text transform="matrix(1 0 0 1 115.1227 199.1266)" fill="#ABABAB" font-family="'Courier'" font-size="9.7588px"> </text>
	<text transform="matrix(1 0 0 1 97.5641 210.3867)" fill="#ABABAB" font-family="'Courier'" font-size="9.7588px"> </text>
	<text transform="matrix(1 0 0 1 97.5641 221.6471)" fill="#ABABAB" font-family="'Courier'" font-size="9.7588px">m</text>
	<text transform="matrix(1 0 0 1 103.4206 221.6471)" fill="#ABABAB" font-family="'Courier'" font-size="9.7588px">i</text>
	<text transform="matrix(1 0 0 1 109.2765 221.6471)" fill="#ABABAB" font-family="'Courier'" font-size="9.7588px">n</text>
	<text transform="matrix(1 0 0 1 115.133 221.6471)" fill="#ABABAB" font-family="'Courier'" font-size="9.7588px">e</text>
	<text transform="matrix(1 0 0 1 120.9889 221.6471)" fill="#ABABAB" font-family="'Courier'" font-size="9.7588px"> </text>
	<text transform="matrix(1 0 0 1 126.8454 221.6471)" fill="#ABABAB" font-family="'Courier'" font-size="9.7588px">=</text>
	<text transform="matrix(1 0 0 1 132.7013 221.6471)" fill="#ABABAB" font-family="'Courier'" font-size="9.7588px"> </text>
	<text transform="matrix(1 0 0 1 138.5461 221.6471)" fill="#3F90AB" font-family="'Courier'" font-size="9.7588px">B</text>
	<text transform="matrix(1 0 0 1 144.4025 221.6471)" fill="#3F90AB" font-family="'Courier'" font-size="9.7588px">o</text>
	<text transform="matrix(1 0 0 1 150.2585 221.6471)" fill="#3F90AB" font-family="'Courier'" font-size="9.7588px">t</text>
	<text transform="matrix(1 0 0 1 156.1149 221.6471)" fill="#3F90AB" font-family="'Courier'" font-size="9.7588px">t</text>
	<text transform="matrix(1 0 0 1 161.9709 221.6471)" fill="#3F90AB" font-family="'Courier'" font-size="9.7588px">l</text>
	<text transform="matrix(1 0 0 1 167.8273 221.6471)" fill="#3F90AB" font-family="'Courier'" font-size="9.7588px">e</text>
	<text transform="matrix(1 0 0 1 173.6754 221.6471)" fill="#ABABAB" font-family="'Courier'" font-size="9.7588px">.</text>
	<text transform="matrix(1 0 0 1 179.5314 221.6471)" fill="#ABABAB" font-family="'Courier'" font-size="9.7588px">n</text>
	<text transform="matrix(1 0 0 1 185.3878 221.6471)" fill="#ABABAB" font-family="'Courier'" font-size="9.7588px">e</text>
	<text transform="matrix(1 0 0 1 191.2443 221.6471)" fill="#ABABAB" font-family="'Courier'" font-size="9.7588px">w</text>
	<text transform="matrix(1 0 0 1 197.0988 221.6471)" fill="#ABABAB" font-family="'Courier'" font-size="9.7588px"> </text>
	<text transform="matrix(1 0 0 1 97.5641 232.9067)" fill="#ABABAB" font-family="'Courier'" font-size="9.7588px"> </text>
	<text transform="matrix(1 0 0 1 97.5641 244.1666)" fill="#ABABAB" font-family="'Courier'" font-size="9.7588px">m</text>
	<text transform="matrix(1 0 0 1 103.4206 244.1666)" fill="#ABABAB" font-family="'Courier'" font-size="9.7588px">i</text>
	<text transform="matrix(1 0 0 1 109.2765 244.1666)" fill="#ABABAB" font-family="'Courier'" font-size="9.7588px">n</text>
	<text transform="matrix(1 0 0 1 115.133 244.1666)" fill="#ABABAB" font-family="'Courier'" font-size="9.7588px">e</text>
	<text transform="matrix(1 0 0 1 120.9889 244.1666)" fill="#ABABAB" font-family="'Courier'" font-size="9.7588px">.</text>
	<text transform="matrix(1 0 0 1 126.8454 244.1666)" fill="#ABABAB" font-family="'Courier'" font-size="9.7588px">c</text>
	<text transform="matrix(1 0 0 1 132.7013 244.1666)" fill="#ABABAB" font-family="'Courier'" font-size="9.7588px">o</text>
	<text transform="matrix(1 0 0 1 138.5578 244.1666)" fill="#ABABAB" font-family="'Courier'" font-size="9.7588px">l</text>
	<text transform="matrix(1 0 0 1 144.4137 244.1666)" fill="#ABABAB" font-family="'Courier'" font-size="9.7588px">o</text>
	<text transform="matrix(1 0 0 1 150.2702 244.1666)" fill="#ABABAB" font-family="'Courier'" font-size="9.7588px">r</text>
	<text transform="matrix(1 0 0 1 156.1261 244.1666)" fill="#ABABAB" font-family="'Courier'" font-size="9.7588px"> </text>
	<text transform="matrix(1 0 0 1 161.9811 244.1666)" fill="#171717" font-family="'Courier'" font-size="9.7588px">#</text>
	<text transform="matrix(1 0 0 1 167.8376 244.1666)" fill="#171717" font-family="'Courier'" font-size="9.7588px"> </text>
	<text transform="matrix(1 0 0 1 173.694 244.1666)" fill="#171717" font-family="'Courier'" font-size="9.7588px">=</text>
	<text transform="matrix(1 0 0 1 179.55 244.1666)" fill="#171717" font-family="'Courier'" font-size="9.7588px">&gt;</text>
	<text transform="matrix(1 0 0 1 185.4064 244.1666)" fill="#171717" font-family="'Courier'" font-size="9.7588px"> </text>
	<text transform="matrix(1 0 0 1 191.2624 244.1666)" fill="#171717" font-family="'Courier'" font-size="9.7588px">n</text>
	<text transform="matrix(1 0 0 1 197.1188 244.1666)" fill="#171717" font-family="'Courier'" font-size="9.7588px">i</text>
	<text transform="matrix(1 0 0 1 202.9748 244.1666)" fill="#171717" font-family="'Courier'" font-size="9.7588px">l</text>
	<text transform="matrix(1 0 0 1 208.8283 244.1666)" fill="#ABABAB" font-family="'Courier'" font-size="9.7588px"> </text>
	<text transform="matrix(1 0 0 1 97.5641 255.4274)" fill="#ABABAB" font-family="'Courier'" font-size="9.7588px">m</text>
	<text transform="matrix(1 0 0 1 103.4206 255.4274)" fill="#ABABAB" font-family="'Courier'" font-size="9.7588px">i</text>
	<text transform="matrix(1 0 0 1 109.2765 255.4274)" fill="#ABABAB" font-family="'Courier'" font-size="9.7588px">n</text>
	<text transform="matrix(1 0 0 1 115.133 255.4274)" fill="#ABABAB" font-family="'Courier'" font-size="9.7588px">e</text>
	<text transform="matrix(1 0 0 1 120.9889 255.4274)" fill="#ABABAB" font-family="'Courier'" font-size="9.7588px">.</text>
	<text transform="matrix(1 0 0 1 126.8454 255.4274)" fill="#ABABAB" font-family="'Courier'" font-size="9.7588px">c</text>
	<text transform="matrix(1 0 0 1 132.7013 255.4274)" fill="#ABABAB" font-family="'Courier'" font-size="9.7588px">o</text>
	<text transform="matrix(1 0 0 1 138.5578 255.4274)" fill="#ABABAB" font-family="'Courier'" font-size="9.7588px">l</text>
	<text transform="matrix(1 0 0 1 144.4137 255.4274)" fill="#ABABAB" font-family="'Courier'" font-size="9.7588px">o</text>
	<text transform="matrix(1 0 0 1 150.2702 255.4274)" fill="#ABABAB" font-family="'Courier'" font-size="9.7588px">r</text>
	<text transform="matrix(1 0 0 1 156.1261 255.4274)" fill="#ABABAB" font-family="'Courier'" font-size="9.7588px"> </text>
	<text transform="matrix(1 0 0 1 161.9826 255.4274)" fill="#ABABAB" font-family="'Courier'" font-size="9.7588px">=</text>
	<text transform="matrix(1 0 0 1 167.8385 255.4274)" fill="#ABABAB" font-family="'Courier'" font-size="9.7588px"> </text>
	<text transform="matrix(1 0 0 1 173.6872 255.4274)" fill="#838352" font-family="'Courier'" font-size="9.7588px">&quot;</text>
	<text transform="matrix(1 0 0 1 179.5402 255.4274)" fill="#838352" font-family="'Courier'" font-size="9.7588px">B</text>
	<text transform="matrix(1 0 0 1 185.3961 255.4274)" fill="#838352" font-family="'Courier'" font-size="9.7588px">l</text>
	<text transform="matrix(1 0 0 1 191.2526 255.4274)" fill="#838352" font-family="'Courier'" font-size="9.7588px">u</text>
	<text transform="matrix(1 0 0 1 197.1086 255.4274)" fill="#838352" font-family="'Courier'" font-size="9.7588px">e</text>
	<text transform="matrix(1 0 0 1 202.9635 255.4274)" fill="#838352" font-family="'Courier'" font-size="9.7588px">&quot;</text>
	<text transform="matrix(1 0 0 1 208.8166 255.4274)" fill="#ABABAB" font-family="'Courier'" font-size="9.7588px"> </text>
	<text transform="matrix(1 0 0 1 97.5641 266.6875)" fill="#ABABAB" font-family="'Courier'" font-size="9.7588px">m</text>
	<text transform="matrix(1 0 0 1 103.4206 266.6875)" fill="#ABABAB" font-family="'Courier'" font-size="9.7588px">i</text>
	<text transform="matrix(1 0 0 1 109.2765 266.6875)" fill="#ABABAB" font-family="'Courier'" font-size="9.7588px">n</text>
	<text transform="matrix(1 0 0 1 115.133 266.6875)" fill="#ABABAB" font-family="'Courier'" font-size="9.7588px">e</text>
	<text transform="matrix(1 0 0 1 120.9889 266.6875)" fill="#ABABAB" font-family="'Courier'" font-size="9.7588px">.</text>
	<text transform="matrix(1 0 0 1 126.8454 266.6875)" fill="#ABABAB" font-family="'Courier'" font-size="9.7588px">c</text>
	<text transform="matrix(1 0 0 1 132.7013 266.6875)" fill="#ABABAB" font-family="'Courier'" font-size="9.7588px">o</text>
	<text transform="matrix(1 0 0 1 138.5578 266.6875)" fill="#ABABAB" font-family="'Courier'" font-size="9.7588px">l</text>
	<text transform="matrix(1 0 0 1 144.4137 266.6875)" fill="#ABABAB" font-family="'Courier'" font-size="9.7588px">o</text>
	<text transform="matrix(1 0 0 1 150.2702 266.6875)" fill="#ABABAB" font-family="'Courier'" font-size="9.7588px">r</text>
	<text transform="matrix(1 0 0 1 156.1261 266.6875)" fill="#ABABAB" font-family="'Courier'" font-size="9.7588px"> </text>
	<text transform="matrix(1 0 0 1 161.9811 266.6875)" fill="#171717" font-family="'Courier'" font-size="9.7588px">#</text>
	<text transform="matrix(1 0 0 1 167.8376 266.6875)" fill="#171717" font-family="'Courier'" font-size="9.7588px"> </text>
	<text transform="matrix(1 0 0 1 173.694 266.6875)" fill="#171717" font-family="'Courier'" font-size="9.7588px">=</text>
	<text transform="matrix(1 0 0 1 179.55 266.6875)" fill="#171717" font-family="'Courier'" font-size="9.7588px">&gt;</text>
	<text transform="matrix(1 0 0 1 185.4064 266.6875)" fill="#171717" font-family="'Courier'" font-size="9.7588px"> </text>
	<text transform="matrix(1 0 0 1 191.2624 266.6875)" fill="#171717" font-family="'Courier'" font-size="9.7588px">&quot;</text>
	<text transform="matrix(1 0 0 1 197.1188 266.6875)" fill="#171717" font-family="'Courier'" font-size="9.7588px">B</text>
	<text transform="matrix(1 0 0 1 202.9748 266.6875)" fill="#171717" font-family="'Courier'" font-size="9.7588px">l</text>
	<text transform="matrix(1 0 0 1 208.8312 266.6875)" fill="#171717" font-family="'Courier'" font-size="9.7588px">u</text>
	<text transform="matrix(1 0 0 1 214.6872 266.6875)" fill="#171717" font-family="'Courier'" font-size="9.7588px">e</text>
	<text transform="matrix(1 0 0 1 220.5436 266.6875)" fill="#171717" font-family="'Courier'" font-size="9.7588px">&quot;</text>
	<text transform="matrix(1 0 0 1 226.3986 266.6875)" fill="#ABABAB" font-family="'Courier'" font-size="9.7588px"> </text>
	<text transform="matrix(1 0 0 1 133.195 131.0659)" fill="#FF005F" font-family="'Courier'" font-size="9.7588px">_</text>
	<text transform="matrix(1 0 0 1 139.0509 131.0659)" fill="#FF005F" font-family="'Courier'" font-size="9.7588px">r</text>
	<text transform="matrix(1 0 0 1 144.9074 131.0659)" fill="#FF005F" font-family="'Courier'" font-size="9.7588px">e</text>
	<text transform="matrix(1 0 0 1 150.7633 131.0659)" fill="#FF005F" font-family="'Courier'" font-size="9.7588px">a</text>
	<text transform="matrix(1 0 0 1 156.6198 131.0659)" fill="#FF005F" font-family="'Courier'" font-size="9.7588px">d</text>
	<text transform="matrix(1 0 0 1 162.4757 131.0659)" fill="#FF005F" font-family="'Courier'" font-size="9.7588px">e</text>
	<text transform="matrix(1 0 0 1 168.3322 131.0659)" fill="#FF005F" font-family="'Courier'" font-size="9.7588px">r</text>
	<text transform="matrix(1 0 0 1 174.1872 130.0659)" fill="#ABABAB" font-family="'Courier'" font-size="9.7588px"> </text>
	<text transform="matrix(1 0 0 1 133.195 142.3263)" fill="#FF005F" font-family="'Courier'" font-size="9.7588px">_</text>
	<text transform="matrix(1 0 0 1 139.0509 142.3263)" fill="#FF005F" font-family="'Courier'" font-size="9.7588px">w</text>
	<text transform="matrix(1 0 0 1 144.9074 142.3263)" fill="#FF005F" font-family="'Courier'" font-size="9.7588px">r</text>
	<text transform="matrix(1 0 0 1 150.7633 142.3263)" fill="#FF005F" font-family="'Courier'" font-size="9.7588px">i</text>
	<text transform="matrix(1 0 0 1 156.6198 142.3263)" fill="#FF005F" font-family="'Courier'" font-size="9.7588px">t</text>
	<text transform="matrix(1 0 0 1 162.4757 142.3263)" fill="#FF005F" font-family="'Courier'" font-size="9.7588px">e</text>
	<text transform="matrix(1 0 0 1 168.3322 142.3263)" fill="#FF005F" font-family="'Courier'" font-size="9.7588px">r</text>
	<text transform="matrix(1 0 0 1 160.1872 142.3263)" fill="#ABABAB" font-family="'Courier'" font-size="9.7588px"> </text>
</g>
<g>
	<line fill="#FF0000" x1="103.5" y1="14.44" x2="88.5" y2="14.44"/>
	<g>
		<g>
			<g>
				<g>
					<rect x="88.5" y="6.94" fill="none" width="15" height="15"/>
				</g>
				<rect x="89.61" y="13.47" fill-rule="evenodd" clip-rule="evenodd" fill="#231F20" width="2.78" height="1.5"/>
				<rect x="94.6" y="13.47" fill-rule="evenodd" clip-rule="evenodd" fill="#231F20" width="2.78" height="1.5"/>
				<rect x="99.58" y="13.47" fill-rule="evenodd" clip-rule="evenodd" fill="#231F20" width="2.78" height="1.5"/>
			</g>
		</g>
	</g>
</g>
<g>
	<line fill="#FF0000" x1="88.5" y1="14.44" x2="88.5" y2="38.44"/>
	<g>
		<g>
			<g>
				<g>
					<g>
						<rect x="81" y="14.44" fill="none" width="15" height="12"/>
					</g>
					<rect x="87.53" y="23.32" fill-rule="evenodd" clip-rule="evenodd" fill="#231F20" width="1.5" height="2.23"/>
					<rect x="87.53" y="19.33" fill-rule="evenodd" clip-rule="evenodd" fill="#231F20" width="1.5" height="2.23"/>
					<rect x="87.53" y="15.35" fill-rule="evenodd" clip-rule="evenodd" fill="#231F20" width="1.5" height="2.23"/>
				</g>
			</g>
			<g>
				<g>
					<g>
						<rect x="81" y="26.44" fill="none" width="15" height="12"/>
					</g>
					<rect x="87.53" y="35.32" fill-rule="evenodd" clip-rule="evenodd" fill="#231F20" width="1.5" height="2.23"/>
					<rect x="87.53" y="31.33" fill-rule="evenodd" clip-rule="evenodd" fill="#231F20" width="1.5" height="2.23"/>
					<rect x="87.53" y="27.35" fill-rule="evenodd" clip-rule="evenodd" fill="#231F20" width="1.5" height="2.23"/>
				</g>
			</g>
		</g>
	</g>
</g>
<g>
	<line fill="#FF0000" x1="88.5" y1="38.44" x2="102.5" y2="38.44"/>
	<g>
		<g>
			<g>
				<g>
					<rect x="88.5" y="30.94" fill="none" width="14" height="15"/>
				</g>
				<rect x="98.87" y="37.91" fill-rule="evenodd" clip-rule="evenodd" fill="#231F20" width="2.6" height="1.5"/>
				<rect x="94.21" y="37.91" fill-rule="evenodd" clip-rule="evenodd" fill="#231F20" width="2.6" height="1.5"/>
				<rect x="89.56" y="37.91" fill-rule="evenodd" clip-rule="evenodd" fill="#231F20" width="2.6" height="1.5"/>
			</g>
		</g>
	</g>
</g>
<text transform="matrix(1 0 0 1 17.5 27.938)" fill="#515151" font-family="'Courier'" font-size="9.7588px">attr_reader</text>
<g>
	<line fill="#FF0000" x1="104.5" y1="62.44" x2="89.5" y2="62.44"/>
	<g>
		<g>
			<g>
				<g>
					<rect x="89.5" y="54.94" fill="none" width="15" height="15"/>
				</g>
				<rect x="90.61" y="61.47" fill-rule="evenodd" clip-rule="evenodd" fill="#231F20" width="2.78" height="1.5"/>
				<rect x="95.6" y="61.47" fill-rule="evenodd" clip-rule="evenodd" fill="#231F20" width="2.78" height="1.5"/>
				<rect x="100.58" y="61.47" fill-rule="evenodd" clip-rule="evenodd" fill="#231F20" width="2.78" height="1.5"/>
			</g>
		</g>
	</g>
</g>
<g>
	<line fill="#FF0000" x1="89.5" y1="62.44" x2="89.5" y2="86.44"/>
	<g>
		<g>
			<g>
				<g>
					<g>
						<rect x="82" y="62.44" fill="none" width="15" height="12"/>
					</g>
					<rect x="88.53" y="71.32" fill-rule="evenodd" clip-rule="evenodd" fill="#231F20" width="1.5" height="2.23"/>
					<rect x="88.53" y="67.33" fill-rule="evenodd" clip-rule="evenodd" fill="#231F20" width="1.5" height="2.23"/>
					<rect x="88.53" y="63.35" fill-rule="evenodd" clip-rule="evenodd" fill="#231F20" width="1.5" height="2.23"/>
				</g>
			</g>
			<g>
				<g>
					<g>
						<rect x="82" y="74.44" fill="none" width="15" height="12"/>
					</g>
					<rect x="88.53" y="83.32" fill-rule="evenodd" clip-rule="evenodd" fill="#231F20" width="1.5" height="2.23"/>
					<rect x="88.53" y="79.33" fill-rule="evenodd" clip-rule="evenodd" fill="#231F20" width="1.5" height="2.23"/>
					<rect x="88.53" y="75.35" fill-rule="evenodd" clip-rule="evenodd" fill="#231F20" width="1.5" height="2.23"/>
				</g>
			</g>
		</g>
	</g>
</g>
<g>
	<line fill="#FF0000" x1="89.5" y1="86.44" x2="103.5" y2="86.44"/>
	<g>
		<g>
			<g>
				<g>
					<rect x="89.5" y="78.94" fill="none" width="14" height="15"/>
				</g>
				<rect x="99.87" y="85.91" fill-rule="evenodd" clip-rule="evenodd" fill="#231F20" width="2.6" height="1.5"/>
				<rect x="95.21" y="85.91" fill-rule="evenodd" clip-rule="evenodd" fill="#231F20" width="2.6" height="1.5"/>
				<rect x="90.56" y="85.91" fill-rule="evenodd" clip-rule="evenodd" fill="#231F20" width="2.6" height="1.5"/>
			</g>
		</g>
	</g>
</g>
<text transform="matrix(1 0 0 1 18.5 75.938)" fill="#515151" font-family="'Courier'" font-size="9.7588px">attr_writer</text>
<g>
	<line fill="#FF0000" x1="222.5" y1="85.44" x2="237.5" y2="85.44"/>
	<g>
		<g>
			<g>
				<g>
					<rect x="222.5" y="77.94" fill="none" width="15" height="15"/>
				</g>
				<rect x="233.61" y="84.91" fill-rule="evenodd" clip-rule="evenodd" fill="#231F20" width="2.78" height="1.5"/>
				<rect x="228.61" y="84.91" fill-rule="evenodd" clip-rule="evenodd" fill="#231F20" width="2.78" height="1.5"/>
				<rect x="223.64" y="84.91" fill-rule="evenodd" clip-rule="evenodd" fill="#231F20" width="2.78" height="1.5"/>
			</g>
		</g>
	</g>
</g>
<g>
	<line fill="#FF0000" x1="237.5" y1="85.44" x2="237.5" y2="13.94"/>
	<g>
		<g>
			<g>
				<g>
					<g>
						<rect x="231.62" y="75.22" fill="none" width="11.75" height="10.21"/>
					</g>
					<rect x="237.08" y="75.98" fill-rule="evenodd" clip-rule="evenodd" fill="#231F20" width="1.18" height="1.9"/>
					<rect x="237.08" y="79.38" fill-rule="evenodd" clip-rule="evenodd" fill="#231F20" width="1.18" height="1.9"/>
					<rect x="237.08" y="82.77" fill-rule="evenodd" clip-rule="evenodd" fill="#231F20" width="1.18" height="1.9"/>
				</g>
			</g>
			<g>
				<g>
					<g>
						<rect x="231.62" y="65.01" fill="none" width="11.75" height="10.21"/>
					</g>
					<rect x="237.08" y="65.76" fill-rule="evenodd" clip-rule="evenodd" fill="#231F20" width="1.18" height="1.9"/>
					<rect x="237.08" y="69.16" fill-rule="evenodd" clip-rule="evenodd" fill="#231F20" width="1.18" height="1.9"/>
					<rect x="237.08" y="72.55" fill-rule="evenodd" clip-rule="evenodd" fill="#231F20" width="1.18" height="1.9"/>
				</g>
			</g>
			<g>
				<g>
					<g>
						<rect x="231.62" y="54.8" fill="none" width="11.75" height="10.21"/>
					</g>
					<rect x="237.08" y="55.55" fill-rule="evenodd" clip-rule="evenodd" fill="#231F20" width="1.18" height="1.9"/>
					<rect x="237.08" y="58.95" fill-rule="evenodd" clip-rule="evenodd" fill="#231F20" width="1.18" height="1.9"/>
					<rect x="237.08" y="62.34" fill-rule="evenodd" clip-rule="evenodd" fill="#231F20" width="1.18" height="1.9"/>
				</g>
			</g>
			<g>
				<g>
					<g>
						<rect x="231.62" y="44.58" fill="none" width="11.75" height="10.21"/>
					</g>
					<rect x="237.08" y="45.34" fill-rule="evenodd" clip-rule="evenodd" fill="#231F20" width="1.18" height="1.9"/>
					<rect x="237.08" y="48.74" fill-rule="evenodd" clip-rule="evenodd" fill="#231F20" width="1.18" height="1.9"/>
					<rect x="237.08" y="52.13" fill-rule="evenodd" clip-rule="evenodd" fill="#231F20" width="1.18" height="1.9"/>
				</g>
			</g>
			<g>
				<g>
					<g>
						<rect x="231.62" y="34.37" fill="none" width="11.75" height="10.21"/>
					</g>
					<rect x="237.08" y="35.12" fill-rule="evenodd" clip-rule="evenodd" fill="#231F20" width="1.18" height="1.9"/>
					<rect x="237.08" y="38.52" fill-rule="evenodd" clip-rule="evenodd" fill="#231F20" width="1.18" height="1.9"/>
					<rect x="237.08" y="41.91" fill-rule="evenodd" clip-rule="evenodd" fill="#231F20" width="1.18" height="1.9"/>
				</g>
			</g>
			<g>
				<g>
					<g>
						<rect x="231.62" y="24.15" fill="none" width="11.75" height="10.21"/>
					</g>
					<rect x="237.08" y="24.91" fill-rule="evenodd" clip-rule="evenodd" fill="#231F20" width="1.18" height="1.9"/>
					<rect x="237.08" y="28.31" fill-rule="evenodd" clip-rule="evenodd" fill="#231F20" width="1.18" height="1.9"/>
					<rect x="237.08" y="31.7" fill-rule="evenodd" clip-rule="evenodd" fill="#231F20" width="1.18" height="1.9"/>
				</g>
			</g>
			<g>
				<g>
					<g>
						<rect x="231.62" y="13.94" fill="none" width="11.75" height="10.21"/>
					</g>
					<rect x="237.08" y="14.69" fill-rule="evenodd" clip-rule="evenodd" fill="#231F20" width="1.18" height="1.9"/>
					<rect x="237.08" y="18.09" fill-rule="evenodd" clip-rule="evenodd" fill="#231F20" width="1.18" height="1.9"/>
					<rect x="237.08" y="21.48" fill-rule="evenodd" clip-rule="evenodd" fill="#231F20" width="1.18" height="1.9"/>
				</g>
			</g>
		</g>
	</g>
</g>
<g>
	<line fill="#FF0000" x1="237.5" y1="13.94" x2="223.5" y2="13.94"/>
	<g>
		<g>
			<g>
				<g>
					<rect x="223.5" y="6.44" fill="none" width="14" height="15"/>
				</g>
				<rect x="224.53" y="12.97" fill-rule="evenodd" clip-rule="evenodd" fill="#231F20" width="2.6" height="1.5"/>
				<rect x="229.2" y="12.97" fill-rule="evenodd" clip-rule="evenodd" fill="#231F20" width="2.6" height="1.5"/>
				<rect x="233.84" y="12.97" fill-rule="evenodd" clip-rule="evenodd" fill="#231F20" width="2.6" height="1.5"/>
			</g>
		</g>
	</g>
</g>
<text transform="matrix(1 0 0 1 245 49.438)"><tspan x="0" y="0" fill="#515151" font-family="'Courier'" font-size="9.7588px">attr_accessor </tspan><tspan x="0" y="8.4" fill="#515151" font-family="'Courier-Oblique'" font-size="7px">(reader/writer)</tspan></text>
<path fill="none" stroke="#515151" stroke-miterlimit="10" d="M177.5,124.44c-1.51,2.23-1.15,5.82,0.5,8c2.79,3.67,7.92,1.54,21,2
	c12.35,0.44,16.78,2.65,19.5-0.5c2.21-2.56,2.19-7.4,0-10c-2.66-3.16-6.98-1.22-19-1C185.62,123.2,179.95,120.83,177.5,124.44z"/>
<g>
	<text transform="matrix(1 0 0 1 227 131.938)" fill="#515151" font-family="'Courier'" font-size="9.7588px">#=&gt; @color</text>
</g>
</svg>
